<?xml version="1.0" encoding="UTF-8"?>
<svg
  xmlns="http://www.w3.org/2000/svg"
  width="1200"
  height="420"
  viewBox="0 0 1200 420"
>
  <defs>
    <g id="menubarBell">
      <path
        d="M32 8
          C22 8 14 15.8 14 25.6
          V29.2
          C14 34.8 12 40.1 8.4 44.8
          C7.4 46.1 8.3 48 10 48
          H54
          C55.7 48 56.6 46.1 55.6 44.8
          C52 40.1 50 34.8 50 29.2
          V25.6
          C50 15.8 42 8 32 8 Z"
      />
      <path
        d="M25 52
          C25 56.4 28.1 59 32 59
          C35.9 59 39 56.4 39 52
          Z"
      />
    </g>
  </defs>

  <rect width="1200" height="420" fill="#F3F4F6" />

  <text
    x="80"
    y="74"
    fill="#111827"
    font-family="SF Pro Display, Helvetica Neue, Arial, sans-serif"
    font-size="28"
    font-weight="700"
  >
    SNotice menu bar template preview
  </text>

  <text
    x="80"
    y="114"
    fill="#6B7280"
    font-family="SF Pro Text, Helvetica Neue, Arial, sans-serif"
    font-size="20"
  >
    Dedicated menu bar icon, separate from the brand logo and optimized for macOS tinting.
  </text>

  <rect x="80" y="156" width="480" height="120" rx="24" fill="#F8FAFC" stroke="#D1D5DB" />
  <rect x="640" y="156" width="480" height="120" rx="24" fill="#111827" />

  <text
    x="80"
    y="330"
    fill="#6B7280"
    font-family="SF Pro Text, Helvetica Neue, Arial, sans-serif"
    font-size="18"
  >
    Left: light menu bar
  </text>

  <text
    x="640"
    y="330"
    fill="#6B7280"
    font-family="SF Pro Text, Helvetica Neue, Arial, sans-serif"
    font-size="18"
  >
    Right: dark menu bar
  </text>

  <g transform="translate(383 178) scale(2.6)" fill="#111827">
    <use href="#menubarBell" />
  </g>

  <g transform="translate(943 178) scale(2.6)" fill="#FFFFFF">
    <use href="#menubarBell" />
  </g>
</svg>
